<?xml version="1.0" encoding="UTF-8"?>
<!DOCTYPE svg PUBLIC "-//W3C//DTD SVG 1.1//EN" "http://www.w3.org/Graphics/SVG/1.1/DTD/svg11.dtd">
<!-- Creator: CorelDRAW -->
<svg xmlns="http://www.w3.org/2000/svg" xml:space="preserve" width="1.70666in" height="1.70666in" version="1.1" style="shape-rendering:geometricPrecision; text-rendering:geometricPrecision; image-rendering:optimizeQuality; fill-rule:evenodd; clip-rule:evenodd"
viewBox="0 0 1707 1707"
 xmlns:xlink="http://www.w3.org/1999/xlink">
 <defs>
  <style type="text/css">
   <![CDATA[
    .fil0 {fill:#333333}
    .fil1 {fill:#FF3131}
    .fil2 {fill:#FFA721}
    .fil3 {fill:#FFE4AF}
   ]]>
  </style>
 </defs>
 <g id="Layer_x0020_1">
  <metadata id="CorelCorpID_0Corel-Layer"/>
  <path class="fil0" d="M1337 810l-107 0 0 239 71 0 36 -239zm-77 510l-30 0 0 198 30 -198zm-43 285l-727 0 8 55 710 0 9 -55zm-777 -19c0,0 0,-1 0,-2l-133 -878c-58,-35 -80,-114 -46,-174 -86,-65 -57,-205 49,-228 3,-74 69,-132 143,-123 33,-73 125,-98 190,-53 27,-73 114,-106 183,-68 48,-77 161,-80 213,-5 62,-16 128,18 151,75 80,-44 183,8 191,101 67,23 104,100 79,167 39,39 48,101 22,150 28,70 -12,150 -84,171l-146 968c-2,11 -12,20 -24,20l-750 0c-11,0 -21,-9 -23,-20l-15 -101zm37 -69l0 -707 -107 0 107 707zm-114 -753l981 0 6 -40 -993 -1 6 41zm904 509l27 -177 -417 0 0 177 390 0zm-84 -224l0 -239 -130 0 0 239 130 0zm-176 0l0 -239 -130 0 0 239 130 0zm-130 271l0 238 130 0 0 -238 -130 0zm176 0l0 238 130 0 0 -238 -130 0zm-614 -1093c-50,0 -89,45 -81,94 2,14 -8,26 -22,27 -87,2 -109,121 -31,156 14,6 18,25 7,37 -46,51 -10,136 61,136l990 0c60,0 100,-67 72,-120 -11,-20 15,-34 15,-69 0,-61 -56,-64 -39,-95 27,-48 -2,-111 -57,-120 -16,-3 -19,-17 -19,-31 0,-74 -92,-108 -141,-55 -14,14 -39,5 -41,-14 -4,-56 -64,-91 -114,-68 -12,5 -26,0 -31,-12 -31,-65 -128,-60 -151,9 -5,16 -26,21 -38,10 -52,-49 -141,-10 -137,64 1,23 -30,33 -43,13 -38,-59 -130,-45 -148,24 -7,28 -34,14 -52,14zm425 -10c-18,0 -30,-20 -20,-36 17,-26 71,-67 156,-33 28,11 11,54 -17,43 -68,-27 -97,11 -100,16 -4,6 -12,10 -19,10zm-411 413c-30,0 -90,-52 -80,-143 4,-30 50,-24 47,6 -9,75 40,91 40,92 25,7 19,45 -7,45zm893 -31c-19,0 -30,-23 -17,-38 4,-5 33,-42 -11,-100 -18,-25 20,-52 38,-28 59,79 24,166 -10,166zm-823 959l130 0 0 -748 -130 0 0 748zm177 0l130 0 0 -748 -130 0 0 748zm-16 -933c-66,0 -122,-57 -120,-123 -106,3 -164,-129 -88,-205 38,-38 98,-46 145,-20 47,-35 115,-30 156,12 43,42 47,109 12,156 46,80 -13,180 -105,180zm-91 -175c15,0 27,16 22,31 -25,74 67,130 121,76 27,-27 29,-69 5,-99 -8,-10 -5,-23 4,-32 46,-47 11,-126 -53,-126 -47,0 -58,46 -84,25 -29,-24 -72,-22 -99,5 -55,55 4,146 76,121 3,0 5,-1 8,-1zm545 182c-67,0 -123,-57 -121,-123 -106,3 -165,-128 -88,-205 38,-38 98,-46 145,-20 78,-58 192,-1 192,97 0,26 -9,51 -24,71 46,80 -13,180 -104,180zm-92 -175c15,0 27,16 22,31 -25,74 67,130 122,76 26,-27 29,-69 5,-99 -22,-26 24,-36 24,-84 0,-66 -81,-98 -127,-51 -22,23 -38,-15 -78,-15 -64,0 -98,79 -52,126 35,34 70,16 84,16z"/>
  <polygon class="fil1" points="1294,1096 877,1096 877,1273 1267,1273 "/>
  <polygon class="fil2" points="1007,1049 1007,810 877,810 877,1049 "/>
  <polygon class="fil2" points="1053,810 1053,1049 1183,1049 1183,810 "/>
  <polygon class="fil2" points="1230,810 1230,1049 1301,1049 1337,810 "/>
  <polygon class="fil2" points="1260,1320 1230,1320 1230,1518 "/>
  <polygon class="fil2" points="1183,1558 1183,1320 1053,1320 1053,1558 "/>
  <polygon class="fil2" points="1007,1558 1007,1320 877,1320 877,1558 "/>
  <polygon class="fil2" points="830,1558 830,810 700,810 700,1558 "/>
  <polygon class="fil2" points="653,1558 653,810 523,810 523,1558 "/>
  <polygon class="fil2" points="477,1517 477,810 370,810 "/>
  <polygon class="fil2" points="1217,1605 490,1605 498,1660 1208,1660 "/>
  <path class="fil2" d="M615 481c-25,74 67,130 121,76 27,-27 29,-69 5,-99 -8,-10 -5,-23 4,-32 46,-47 11,-126 -53,-126 -47,0 -58,46 -84,25 -29,-24 -72,-22 -99,5 -55,55 4,146 76,121 3,0 5,-1 8,-1 15,0 27,16 22,31z"/>
  <path class="fil2" d="M962 441c35,34 70,16 84,16 15,0 27,16 22,31 -25,74 67,130 122,76 26,-27 29,-69 5,-99 -22,-26 24,-36 24,-84 0,-66 -81,-98 -127,-51 -22,23 -38,-15 -78,-15 -64,0 -98,79 -52,126z"/>
  <path class="fil3" d="M1017 509c-106,3 -165,-128 -88,-205 38,-38 98,-46 145,-20 78,-58 192,-1 192,97 0,26 -9,51 -24,71 46,80 -13,180 -104,180 -67,0 -123,-57 -121,-123zm-644 168l990 0c60,0 100,-67 72,-120 -11,-20 15,-34 15,-69 0,-61 -56,-64 -39,-95 27,-48 -2,-111 -57,-120 -16,-3 -19,-17 -19,-31 0,-74 -92,-108 -141,-55 -14,14 -39,5 -41,-14 -4,-56 -64,-91 -114,-68 -12,5 -26,0 -31,-12 -31,-65 -128,-60 -151,9 -5,16 -26,21 -38,10 -52,-49 -141,-10 -137,64 1,23 -30,33 -43,13 -38,-59 -130,-45 -148,24 -7,28 -34,14 -52,14 -50,0 -89,45 -81,94 2,14 -8,26 -22,27 -87,2 -109,121 -31,156 14,6 18,25 7,37 -46,51 -10,136 61,136zm491 -460c-18,0 -30,-20 -20,-36 17,-26 71,-67 156,-33 28,11 11,54 -17,43 -68,-27 -97,11 -100,16 -4,6 -12,10 -19,10zm-75 228c46,80 -13,180 -105,180 -66,0 -122,-57 -120,-123 -106,3 -164,-129 -88,-205 38,-38 98,-46 145,-20 47,-35 115,-30 156,12 43,42 47,109 12,156zm-329 140c25,7 19,45 -7,45 -30,0 -90,-52 -80,-143 4,-30 50,-24 47,6 -9,75 40,91 40,92zm886 14c-19,0 -30,-23 -17,-38 4,-5 33,-42 -11,-100 -18,-25 20,-52 38,-28 59,79 24,166 -10,166z"/>
  <polygon class="fil1" points="1350,724 357,723 363,764 1344,764 "/>
 </g>
</svg>
