<svg xmlns="http://www.w3.org/2000/svg" xmlns:xlink="http://www.w3.org/1999/xlink" width="150" zoomAndPan="magnify" viewBox="0 0 112.5 37.5" height="50" preserveAspectRatio="xMidYMid meet" version="1.0"><defs><g/><clipPath id="17fe15d2c8"><path d="M 30.085938 13.796875 L 43.25 13.796875 L 43.25 26.960938 L 30.085938 26.960938 Z M 30.085938 13.796875 " clip-rule="nonzero"/></clipPath><clipPath id="c098c170a5"><path d="M 36.667969 13.796875 C 33.03125 13.796875 30.085938 16.742188 30.085938 20.378906 C 30.085938 24.011719 33.03125 26.960938 36.667969 26.960938 C 40.300781 26.960938 43.25 24.011719 43.25 20.378906 C 43.25 16.742188 40.300781 13.796875 36.667969 13.796875 Z M 36.667969 13.796875 " clip-rule="nonzero"/></clipPath><clipPath id="80ac4b4b0f"><path d="M 30.085938 13.488281 L 43.628906 13.488281 L 43.628906 27.035156 L 30.085938 27.035156 Z M 30.085938 13.488281 " clip-rule="nonzero"/></clipPath><clipPath id="d15416acd7"><path d="M 34 16 L 43.628906 16 L 43.628906 26 L 34 26 Z M 34 16 " clip-rule="nonzero"/></clipPath></defs><g fill="#f58723" fill-opacity="1"><g transform="translate(8.88405, 26.326211)"><g><path d="M 16.796875 -12.0625 C 18.265625 -12.0625 19.429688 -11.625 20.296875 -10.75 C 21.160156 -9.875 21.59375 -8.554688 21.59375 -6.796875 L 21.59375 0 L 17.4375 0 L 17.4375 -6.109375 C 17.4375 -6.941406 17.28125 -7.554688 16.96875 -7.953125 C 16.65625 -8.347656 16.210938 -8.546875 15.640625 -8.546875 C 15.015625 -8.546875 14.507812 -8.328125 14.125 -7.890625 C 13.75 -7.453125 13.5625 -6.785156 13.5625 -5.890625 L 13.5625 0 L 9.390625 0 L 9.390625 -6.109375 C 9.390625 -7.734375 8.789062 -8.546875 7.59375 -8.546875 C 6.957031 -8.546875 6.445312 -8.328125 6.0625 -7.890625 C 5.6875 -7.453125 5.5 -6.785156 5.5 -5.890625 L 5.5 0 L 1.34375 0 L 1.34375 -11.875 L 5.296875 -11.875 L 5.296875 -10.625 C 5.734375 -11.101562 6.253906 -11.460938 6.859375 -11.703125 C 7.472656 -11.941406 8.132812 -12.0625 8.84375 -12.0625 C 9.675781 -12.0625 10.421875 -11.910156 11.078125 -11.609375 C 11.734375 -11.304688 12.269531 -10.835938 12.6875 -10.203125 C 13.15625 -10.804688 13.742188 -11.265625 14.453125 -11.578125 C 15.171875 -11.898438 15.953125 -12.0625 16.796875 -12.0625 Z M 16.796875 -12.0625 "/></g></g></g><g fill="#f58723" fill-opacity="1"><g transform="translate(29.452106, 26.326211)"><g><path d="M 7.296875 0.203125 C 6.023438 0.203125 4.878906 -0.0546875 3.859375 -0.578125 C 2.835938 -1.109375 2.035156 -1.84375 1.453125 -2.78125 C 0.878906 -3.71875 0.59375 -4.773438 0.59375 -5.953125 C 0.59375 -7.128906 0.878906 -8.179688 1.453125 -9.109375 C 2.035156 -10.046875 2.832031 -10.769531 3.84375 -11.28125 C 4.851562 -11.800781 6.003906 -12.0625 7.296875 -12.0625 C 8.578125 -12.0625 9.726562 -11.800781 10.75 -11.28125 C 11.78125 -10.769531 12.578125 -10.050781 13.140625 -9.125 C 13.710938 -8.195312 14 -7.140625 14 -5.953125 C 14 -4.773438 13.710938 -3.71875 13.140625 -2.78125 C 12.578125 -1.84375 11.78125 -1.109375 10.75 -0.578125 C 9.726562 -0.0546875 8.578125 0.203125 7.296875 0.203125 Z M 7.296875 -3.109375 C 8.023438 -3.109375 8.625 -3.359375 9.09375 -3.859375 C 9.5625 -4.367188 9.796875 -5.066406 9.796875 -5.953125 C 9.796875 -6.828125 9.5625 -7.515625 9.09375 -8.015625 C 8.625 -8.515625 8.023438 -8.765625 7.296875 -8.765625 C 6.566406 -8.765625 5.96875 -8.515625 5.5 -8.015625 C 5.03125 -7.515625 4.796875 -6.828125 4.796875 -5.953125 C 4.796875 -5.066406 5.03125 -4.367188 5.5 -3.859375 C 5.96875 -3.359375 6.566406 -3.109375 7.296875 -3.109375 Z M 7.296875 -3.109375 "/></g></g></g><g fill="#f58723" fill-opacity="1"><g transform="translate(41.718463, 26.326211)"><g><path d="M 13.84375 -11.875 L 8.9375 0 L 4.640625 0 L -0.234375 -11.875 L 4.03125 -11.875 L 6.875 -4.625 L 9.875 -11.875 Z M 13.84375 -11.875 "/></g></g></g><g fill="#f58723" fill-opacity="1"><g transform="translate(52.977229, 26.326211)"><g><path d="M 1.34375 -11.875 L 5.5 -11.875 L 5.5 0 L 1.34375 0 Z M 3.40625 -13.1875 C 2.644531 -13.1875 2.03125 -13.394531 1.5625 -13.8125 C 1.101562 -14.238281 0.875 -14.769531 0.875 -15.40625 C 0.875 -16.03125 1.101562 -16.550781 1.5625 -16.96875 C 2.03125 -17.394531 2.644531 -17.609375 3.40625 -17.609375 C 4.164062 -17.609375 4.78125 -17.40625 5.25 -17 C 5.71875 -16.601562 5.953125 -16.09375 5.953125 -15.46875 C 5.953125 -14.8125 5.71875 -14.265625 5.25 -13.828125 C 4.78125 -13.398438 4.164062 -13.1875 3.40625 -13.1875 Z M 3.40625 -13.1875 "/></g></g></g><g fill="#f58723" fill-opacity="1"><g transform="translate(57.511403, 26.326211)"><g><path d="M 13.46875 -5.921875 C 13.46875 -5.890625 13.445312 -5.546875 13.40625 -4.890625 L 4.78125 -4.890625 C 4.945312 -4.273438 5.28125 -3.800781 5.78125 -3.46875 C 6.289062 -3.144531 6.925781 -2.984375 7.6875 -2.984375 C 8.257812 -2.984375 8.753906 -3.0625 9.171875 -3.21875 C 9.585938 -3.382812 10.003906 -3.648438 10.421875 -4.015625 L 12.625 -1.734375 C 11.46875 -0.441406 9.78125 0.203125 7.5625 0.203125 C 6.164062 0.203125 4.941406 -0.0546875 3.890625 -0.578125 C 2.847656 -1.109375 2.035156 -1.84375 1.453125 -2.78125 C 0.878906 -3.71875 0.59375 -4.773438 0.59375 -5.953125 C 0.59375 -7.128906 0.875 -8.179688 1.4375 -9.109375 C 2 -10.035156 2.773438 -10.757812 3.765625 -11.28125 C 4.753906 -11.800781 5.875 -12.0625 7.125 -12.0625 C 8.300781 -12.0625 9.367188 -11.816406 10.328125 -11.328125 C 11.296875 -10.847656 12.0625 -10.144531 12.625 -9.21875 C 13.1875 -8.289062 13.46875 -7.191406 13.46875 -5.921875 Z M 7.140625 -9.109375 C 6.492188 -9.109375 5.957031 -8.925781 5.53125 -8.5625 C 5.101562 -8.195312 4.828125 -7.703125 4.703125 -7.078125 L 9.578125 -7.078125 C 9.453125 -7.703125 9.175781 -8.195312 8.75 -8.5625 C 8.320312 -8.925781 7.785156 -9.109375 7.140625 -9.109375 Z M 7.140625 -9.109375 "/></g></g></g><g fill="#f58723" fill-opacity="1"><g transform="translate(69.252063, 26.326211)"><g><path d="M 9.265625 0.3125 C 7.640625 0.3125 6.179688 -0.03125 4.890625 -0.71875 C 3.597656 -1.40625 2.582031 -2.351562 1.84375 -3.5625 C 1.113281 -4.78125 0.75 -6.148438 0.75 -7.671875 C 0.75 -9.191406 1.113281 -10.554688 1.84375 -11.765625 C 2.582031 -12.972656 3.597656 -13.921875 4.890625 -14.609375 C 6.179688 -15.296875 7.640625 -15.640625 9.265625 -15.640625 C 10.890625 -15.640625 12.347656 -15.296875 13.640625 -14.609375 C 14.929688 -13.921875 15.941406 -12.972656 16.671875 -11.765625 C 17.410156 -10.554688 17.78125 -9.191406 17.78125 -7.671875 C 17.78125 -6.148438 17.410156 -4.78125 16.671875 -3.5625 C 15.941406 -2.351562 14.929688 -1.40625 13.640625 -0.71875 C 12.347656 -0.03125 10.890625 0.3125 9.265625 0.3125 Z M 9.265625 -3.28125 C 10.035156 -3.28125 10.734375 -3.460938 11.359375 -3.828125 C 11.992188 -4.191406 12.492188 -4.707031 12.859375 -5.375 C 13.222656 -6.039062 13.40625 -6.804688 13.40625 -7.671875 C 13.40625 -8.523438 13.222656 -9.285156 12.859375 -9.953125 C 12.492188 -10.617188 11.992188 -11.132812 11.359375 -11.5 C 10.734375 -11.863281 10.035156 -12.046875 9.265625 -12.046875 C 8.492188 -12.046875 7.789062 -11.863281 7.15625 -11.5 C 6.53125 -11.132812 6.035156 -10.617188 5.671875 -9.953125 C 5.304688 -9.285156 5.125 -8.523438 5.125 -7.671875 C 5.125 -6.804688 5.304688 -6.039062 5.671875 -5.375 C 6.035156 -4.707031 6.53125 -4.191406 7.15625 -3.828125 C 7.789062 -3.460938 8.492188 -3.28125 9.265625 -3.28125 Z M 9.265625 -3.28125 "/></g></g></g><g fill="#f58723" fill-opacity="1"><g transform="translate(85.46118, 26.326211)"><g><path d="M 16.125 -15.328125 L 16.125 0 L 12.546875 0 L 5.78125 -8.171875 L 5.78125 0 L 1.53125 0 L 1.53125 -15.328125 L 5.109375 -15.328125 L 11.875 -7.15625 L 11.875 -15.328125 Z M 16.125 -15.328125 "/></g></g></g><g clip-path="url(#17fe15d2c8)"><g clip-path="url(#c098c170a5)"><path fill="#ffffff" d="M 30.085938 13.796875 L 43.25 13.796875 L 43.25 26.960938 L 30.085938 26.960938 Z M 30.085938 13.796875 " fill-opacity="1" fill-rule="nonzero"/></g></g><g clip-path="url(#80ac4b4b0f)"><path fill="#f58723" d="M 42.316406 23.457031 C 41.921875 24.140625 41.125 24.449219 40.398438 24.257812 L 38.613281 26.039062 L 38.398438 26.257812 L 38.179688 26.039062 C 37.871094 26.355469 37.4375 26.546875 36.964844 26.546875 C 36.015625 26.546875 35.25 25.78125 35.25 24.835938 C 35.25 24.113281 35.695312 23.496094 36.328125 23.242188 L 35.703125 22.617188 L 35.445312 22.871094 L 35.230469 23.089844 L 34.804688 22.667969 C 34.785156 23.234375 34.480469 23.78125 33.949219 24.085938 C 33.132812 24.558594 32.082031 24.277344 31.609375 23.457031 C 31.136719 22.636719 31.417969 21.589844 32.238281 21.117188 C 32.945312 20.707031 33.820312 20.863281 34.351562 21.4375 L 39.070312 16.722656 L 39.285156 16.503906 L 39.664062 16.882812 C 39.757812 16.792969 39.859375 16.714844 39.976562 16.648438 C 40.796875 16.175781 41.84375 16.457031 42.316406 17.277344 C 42.789062 18.097656 42.507812 19.144531 41.691406 19.617188 C 41.640625 19.648438 41.585938 19.671875 41.535156 19.695312 L 41.980469 20.144531 L 42.453125 19.671875 L 43.71875 20.9375 L 42.488281 22.164062 C 42.601562 22.585938 42.550781 23.050781 42.316406 23.457031 Z M 31.609375 17.277344 C 32.082031 16.457031 33.132812 16.175781 33.949219 16.648438 C 34.769531 17.121094 35.050781 18.171875 34.578125 18.988281 C 34.105469 19.808594 33.058594 20.089844 32.238281 19.617188 C 31.417969 19.144531 31.136719 18.097656 31.609375 17.277344 Z M 36.964844 14.1875 C 37.910156 14.1875 38.675781 14.953125 38.675781 15.898438 C 38.675781 16.84375 37.910156 17.613281 36.964844 17.613281 C 36.015625 17.613281 35.25 16.84375 35.25 15.898438 C 35.25 14.953125 36.015625 14.1875 36.964844 14.1875 Z M 36.964844 13.488281 C 33.164062 13.488281 30.085938 16.570312 30.085938 20.367188 C 30.085938 24.164062 33.164062 27.246094 36.964844 27.246094 C 40.761719 27.246094 43.839844 24.164062 43.839844 20.367188 C 43.839844 16.570312 40.761719 13.488281 36.964844 13.488281 " fill-opacity="1" fill-rule="nonzero"/></g><g clip-path="url(#d15416acd7)"><path fill="#f58723" d="M 42.578125 21.375 L 42.328125 21.625 C 42.316406 21.636719 42.304688 21.640625 42.289062 21.640625 C 42.273438 21.640625 42.257812 21.636719 42.25 21.625 L 41.832031 21.207031 L 41.828125 21.207031 C 41.804688 21.183594 41.804688 21.144531 41.828125 21.125 L 42.078125 20.875 C 42.089844 20.863281 42.101562 20.855469 42.117188 20.855469 C 42.132812 20.855469 42.148438 20.863281 42.160156 20.875 L 42.578125 21.292969 C 42.601562 21.316406 42.601562 21.351562 42.578125 21.375 Z M 41.878906 22.074219 L 41.628906 22.324219 C 41.621094 22.335938 41.605469 22.339844 41.589844 22.339844 C 41.574219 22.339844 41.5625 22.335938 41.550781 22.324219 L 41.128906 21.902344 C 41.105469 21.882812 41.105469 21.84375 41.128906 21.824219 L 41.378906 21.574219 C 41.390625 21.5625 41.40625 21.554688 41.417969 21.554688 C 41.433594 21.554688 41.449219 21.5625 41.460938 21.574219 L 41.878906 21.992188 C 41.902344 22.015625 41.902344 22.050781 41.878906 22.074219 Z M 41.183594 22.773438 L 40.933594 23.023438 C 40.921875 23.035156 40.90625 23.039062 40.890625 23.039062 C 40.878906 23.039062 40.863281 23.035156 40.851562 23.023438 L 40.429688 22.601562 C 40.410156 22.578125 40.410156 22.542969 40.429688 22.523438 L 40.679688 22.269531 C 40.691406 22.261719 40.707031 22.253906 40.71875 22.253906 C 40.734375 22.253906 40.75 22.261719 40.761719 22.273438 L 41.179688 22.691406 C 41.203125 22.714844 41.203125 22.75 41.183594 22.773438 Z M 40.484375 23.472656 L 40.234375 23.722656 C 40.222656 23.734375 40.207031 23.738281 40.195312 23.738281 C 40.179688 23.738281 40.164062 23.730469 40.152344 23.722656 L 39.734375 23.300781 C 39.710938 23.277344 39.710938 23.242188 39.730469 23.21875 L 39.984375 22.96875 C 39.992188 22.957031 40.007812 22.953125 40.023438 22.953125 C 40.035156 22.953125 40.050781 22.960938 40.0625 22.96875 L 40.484375 23.390625 C 40.503906 23.414062 40.507812 23.449219 40.484375 23.472656 Z M 39.785156 24.171875 L 39.535156 24.421875 C 39.523438 24.429688 39.507812 24.4375 39.496094 24.4375 C 39.480469 24.4375 39.464844 24.429688 39.453125 24.417969 L 39.035156 24 C 39.011719 23.976562 39.011719 23.941406 39.035156 23.917969 L 39.285156 23.667969 C 39.292969 23.65625 39.308594 23.652344 39.324219 23.652344 C 39.335938 23.652344 39.351562 23.65625 39.363281 23.667969 L 39.785156 24.089844 C 39.808594 24.113281 39.808594 24.148438 39.785156 24.171875 Z M 39.085938 24.867188 L 38.835938 25.121094 C 38.824219 25.128906 38.8125 25.136719 38.796875 25.136719 C 38.78125 25.136719 38.765625 25.128906 38.753906 25.117188 L 38.335938 24.699219 C 38.3125 24.675781 38.3125 24.640625 38.335938 24.617188 L 38.585938 24.367188 C 38.589844 24.359375 38.597656 24.355469 38.609375 24.355469 C 38.613281 24.351562 38.621094 24.351562 38.625 24.351562 C 38.640625 24.351562 38.652344 24.355469 38.664062 24.367188 L 39.085938 24.789062 C 39.109375 24.808594 39.109375 24.847656 39.085938 24.867188 Z M 38.066406 24.132812 L 36.089844 22.15625 C 35.988281 22.054688 35.988281 21.894531 36.089844 21.796875 L 36.632812 21.253906 L 37.847656 20.035156 L 39.207031 18.675781 L 39.257812 18.628906 C 39.304688 18.578125 39.371094 18.554688 39.4375 18.554688 C 39.5 18.554688 39.566406 18.578125 39.617188 18.628906 L 41.59375 20.605469 C 41.691406 20.707031 41.691406 20.867188 41.59375 20.96875 L 38.425781 24.132812 C 38.378906 24.183594 38.3125 24.207031 38.246094 24.207031 C 38.183594 24.207031 38.117188 24.183594 38.066406 24.132812 Z M 35.804688 20.769531 C 35.78125 20.746094 35.78125 20.710938 35.804688 20.6875 L 36.054688 20.4375 C 36.0625 20.425781 36.078125 20.421875 36.09375 20.421875 C 36.109375 20.421875 36.121094 20.425781 36.132812 20.4375 L 36.554688 20.859375 C 36.578125 20.882812 36.578125 20.917969 36.554688 20.941406 L 36.304688 21.191406 C 36.292969 21.199219 36.277344 21.207031 36.265625 21.207031 C 36.25 21.207031 36.234375 21.199219 36.222656 21.1875 Z M 35.855469 21.636719 L 35.605469 21.890625 C 35.59375 21.898438 35.582031 21.90625 35.566406 21.90625 C 35.550781 21.90625 35.535156 21.898438 35.523438 21.886719 L 35.105469 21.46875 C 35.082031 21.445312 35.082031 21.410156 35.101562 21.386719 L 35.355469 21.136719 C 35.367188 21.125 35.378906 21.121094 35.394531 21.121094 C 35.410156 21.121094 35.421875 21.125 35.433594 21.136719 L 35.855469 21.558594 C 35.878906 21.578125 35.878906 21.617188 35.855469 21.636719 Z M 36.5 19.988281 L 36.753906 19.738281 C 36.761719 19.726562 36.777344 19.722656 36.792969 19.722656 C 36.804688 19.722656 36.820312 19.730469 36.832031 19.738281 L 37.253906 20.160156 C 37.273438 20.183594 37.277344 20.21875 37.253906 20.242188 L 37.003906 20.492188 C 36.992188 20.503906 36.976562 20.507812 36.964844 20.507812 C 36.949219 20.507812 36.933594 20.5 36.921875 20.492188 L 36.503906 20.070312 C 36.480469 20.046875 36.480469 20.011719 36.5 19.988281 Z M 37.199219 19.292969 L 37.449219 19.039062 C 37.460938 19.03125 37.476562 19.023438 37.488281 19.023438 C 37.503906 19.023438 37.519531 19.03125 37.53125 19.042969 L 37.949219 19.460938 C 37.972656 19.484375 37.972656 19.519531 37.953125 19.542969 L 37.707031 19.785156 L 37.703125 19.792969 C 37.691406 19.804688 37.675781 19.808594 37.664062 19.808594 C 37.648438 19.808594 37.632812 19.804688 37.621094 19.792969 L 37.199219 19.371094 C 37.179688 19.347656 37.179688 19.3125 37.199219 19.292969 Z M 37.898438 18.59375 L 38.148438 18.34375 C 38.160156 18.332031 38.175781 18.324219 38.1875 18.324219 C 38.203125 18.324219 38.21875 18.332031 38.230469 18.34375 L 38.648438 18.761719 C 38.671875 18.785156 38.671875 18.820312 38.652344 18.84375 L 38.398438 19.09375 C 38.390625 19.105469 38.375 19.109375 38.359375 19.109375 C 38.34375 19.109375 38.332031 19.105469 38.320312 19.09375 L 37.898438 18.671875 C 37.875 18.652344 37.875 18.613281 37.898438 18.59375 Z M 38.597656 17.894531 L 38.847656 17.644531 C 38.859375 17.632812 38.871094 17.625 38.886719 17.625 C 38.902344 17.625 38.917969 17.632812 38.929688 17.644531 L 39.140625 17.859375 L 39.347656 18.0625 C 39.371094 18.085938 39.371094 18.121094 39.347656 18.144531 L 39.097656 18.394531 C 39.085938 18.40625 39.074219 18.410156 39.058594 18.410156 C 39.042969 18.410156 39.027344 18.40625 39.019531 18.394531 L 38.597656 17.976562 C 38.574219 17.953125 38.574219 17.914062 38.597656 17.894531 Z M 43.152344 20.804688 L 43.027344 20.925781 C 43.015625 20.9375 43.003906 20.945312 42.988281 20.945312 C 42.972656 20.945312 42.957031 20.9375 42.945312 20.925781 L 42.527344 20.507812 C 42.503906 20.484375 42.503906 20.449219 42.527344 20.425781 L 42.648438 20.300781 L 42.453125 20.105469 L 42.160156 20.398438 C 42.113281 20.449219 42.046875 20.472656 41.980469 20.472656 C 41.917969 20.472656 41.851562 20.449219 41.800781 20.398438 L 39.824219 18.421875 C 39.722656 18.320312 39.722656 18.160156 39.824219 18.0625 L 40.117188 17.769531 L 39.921875 17.574219 L 39.796875 17.695312 C 39.785156 17.707031 39.773438 17.714844 39.757812 17.714844 C 39.742188 17.714844 39.726562 17.707031 39.714844 17.695312 L 39.332031 17.308594 L 39.296875 17.277344 C 39.273438 17.253906 39.273438 17.21875 39.296875 17.195312 L 39.417969 17.074219 L 39.285156 16.9375 L 36.789062 19.4375 L 36.035156 20.191406 L 34.398438 21.824219 L 34.53125 21.957031 L 34.65625 21.835938 C 34.667969 21.824219 34.679688 21.820312 34.695312 21.820312 C 34.710938 21.820312 34.726562 21.824219 34.734375 21.835938 L 35.15625 22.253906 C 35.179688 22.277344 35.179688 22.316406 35.15625 22.335938 L 35.035156 22.460938 L 35.230469 22.65625 L 35.523438 22.363281 C 35.570312 22.3125 35.636719 22.289062 35.703125 22.289062 C 35.765625 22.289062 35.832031 22.3125 35.882812 22.363281 L 37.859375 24.339844 C 37.960938 24.441406 37.960938 24.601562 37.859375 24.699219 L 37.566406 24.992188 L 37.761719 25.1875 L 37.886719 25.066406 C 37.898438 25.054688 37.910156 25.050781 37.925781 25.050781 C 37.941406 25.050781 37.957031 25.054688 37.964844 25.066406 L 38.386719 25.484375 C 38.410156 25.507812 38.410156 25.546875 38.386719 25.566406 L 38.265625 25.691406 L 38.398438 25.824219 L 40.078125 24.140625 L 42.371094 21.847656 L 43.285156 20.9375 L 43.152344 20.804688 " fill-opacity="1" fill-rule="nonzero"/></g><g fill="#f58723" fill-opacity="1"><g transform="translate(25.64112, 30.600244)"><g><path d="M 2.140625 -0.375 L 2.140625 0 L 0.328125 0 L 0.328125 -2.421875 L 2.09375 -2.421875 L 2.09375 -2.046875 L 0.78125 -2.046875 L 0.78125 -1.421875 L 1.953125 -1.421875 L 1.953125 -1.046875 L 0.78125 -1.046875 L 0.78125 -0.375 Z M 2.140625 -0.375 "/></g></g></g><g fill="#f58723" fill-opacity="1"><g transform="translate(30.423375, 30.600244)"><g><path d="M 2.484375 -2.421875 L 2.484375 0 L 2.109375 0 L 0.78125 -1.640625 L 0.78125 0 L 0.328125 0 L 0.328125 -2.421875 L 0.703125 -2.421875 L 2.03125 -0.78125 L 2.03125 -2.421875 Z M 2.484375 -2.421875 "/></g></g></g><g fill="#f58723" fill-opacity="1"><g transform="translate(35.691667, 30.600244)"><g><path d="M 0.8125 -2.046875 L 0.015625 -2.046875 L 0.015625 -2.421875 L 2.078125 -2.421875 L 2.078125 -2.046875 L 1.265625 -2.046875 L 1.265625 0 L 0.8125 0 Z M 0.8125 -2.046875 "/></g></g></g><g fill="#f58723" fill-opacity="1"><g transform="translate(40.237849, 30.600244)"><g><path d="M 2.140625 -0.375 L 2.140625 0 L 0.328125 0 L 0.328125 -2.421875 L 2.09375 -2.421875 L 2.09375 -2.046875 L 0.78125 -2.046875 L 0.78125 -1.421875 L 1.953125 -1.421875 L 1.953125 -1.046875 L 0.78125 -1.046875 L 0.78125 -0.375 Z M 2.140625 -0.375 "/></g></g></g><g fill="#f58723" fill-opacity="1"><g transform="translate(45.020105, 30.600244)"><g><path d="M 1.921875 0 L 1.421875 -0.71875 C 1.398438 -0.707031 1.367188 -0.703125 1.328125 -0.703125 L 0.78125 -0.703125 L 0.78125 0 L 0.328125 0 L 0.328125 -2.421875 L 1.328125 -2.421875 C 1.535156 -2.421875 1.71875 -2.382812 1.875 -2.3125 C 2.03125 -2.25 2.148438 -2.148438 2.234375 -2.015625 C 2.316406 -1.890625 2.359375 -1.738281 2.359375 -1.5625 C 2.359375 -1.382812 2.3125 -1.226562 2.21875 -1.09375 C 2.132812 -0.957031 2.007812 -0.859375 1.84375 -0.796875 L 2.40625 0 Z M 1.90625 -1.5625 C 1.90625 -1.71875 1.851562 -1.835938 1.75 -1.921875 C 1.644531 -2.003906 1.492188 -2.046875 1.296875 -2.046875 L 0.78125 -2.046875 L 0.78125 -1.078125 L 1.296875 -1.078125 C 1.492188 -1.078125 1.644531 -1.117188 1.75 -1.203125 C 1.851562 -1.285156 1.90625 -1.40625 1.90625 -1.5625 Z M 1.90625 -1.5625 "/></g></g></g><g fill="#f58723" fill-opacity="1"><g transform="translate(50.014134, 30.600244)"><g><path d="M 0.8125 -2.046875 L 0.015625 -2.046875 L 0.015625 -2.421875 L 2.078125 -2.421875 L 2.078125 -2.046875 L 1.265625 -2.046875 L 1.265625 0 L 0.8125 0 Z M 0.8125 -2.046875 "/></g></g></g><g fill="#f58723" fill-opacity="1"><g transform="translate(54.560316, 30.600244)"><g><path d="M 1.90625 -0.5625 L 0.6875 -0.5625 L 0.453125 0 L -0.015625 0 L 1.078125 -2.421875 L 1.515625 -2.421875 L 2.609375 0 L 2.140625 0 Z M 1.75 -0.921875 L 1.296875 -1.984375 L 0.84375 -0.921875 Z M 1.75 -0.921875 "/></g></g></g><g fill="#f58723" fill-opacity="1"><g transform="translate(59.616836, 30.600244)"><g><path d="M 0.328125 -2.421875 L 0.78125 -2.421875 L 0.78125 0 L 0.328125 0 Z M 0.328125 -2.421875 "/></g></g></g><g fill="#f58723" fill-opacity="1"><g transform="translate(63.180535, 30.600244)"><g><path d="M 2.484375 -2.421875 L 2.484375 0 L 2.109375 0 L 0.78125 -1.640625 L 0.78125 0 L 0.328125 0 L 0.328125 -2.421875 L 0.703125 -2.421875 L 2.03125 -0.78125 L 2.03125 -2.421875 Z M 2.484375 -2.421875 "/></g></g></g><g fill="#f58723" fill-opacity="1"><g transform="translate(68.448825, 30.600244)"><g><path d="M 2.5625 0 L 2.546875 -1.609375 L 1.75 -0.28125 L 1.546875 -0.28125 L 0.75 -1.59375 L 0.75 0 L 0.328125 0 L 0.328125 -2.421875 L 0.703125 -2.421875 L 1.65625 -0.8125 L 2.609375 -2.421875 L 2.984375 -2.421875 L 2.984375 0 Z M 2.5625 0 "/></g></g></g><g fill="#f58723" fill-opacity="1"><g transform="translate(74.220507, 30.600244)"><g><path d="M 2.140625 -0.375 L 2.140625 0 L 0.328125 0 L 0.328125 -2.421875 L 2.09375 -2.421875 L 2.09375 -2.046875 L 0.78125 -2.046875 L 0.78125 -1.421875 L 1.953125 -1.421875 L 1.953125 -1.046875 L 0.78125 -1.046875 L 0.78125 -0.375 Z M 2.140625 -0.375 "/></g></g></g><g fill="#f58723" fill-opacity="1"><g transform="translate(79.00276, 30.600244)"><g><path d="M 2.484375 -2.421875 L 2.484375 0 L 2.109375 0 L 0.78125 -1.640625 L 0.78125 0 L 0.328125 0 L 0.328125 -2.421875 L 0.703125 -2.421875 L 2.03125 -0.78125 L 2.03125 -2.421875 Z M 2.484375 -2.421875 "/></g></g></g><g fill="#f58723" fill-opacity="1"><g transform="translate(84.271054, 30.600244)"><g><path d="M 0.8125 -2.046875 L 0.015625 -2.046875 L 0.015625 -2.421875 L 2.078125 -2.421875 L 2.078125 -2.046875 L 1.265625 -2.046875 L 1.265625 0 L 0.8125 0 Z M 0.8125 -2.046875 "/></g></g></g></svg>