<svg xmlns="http://www.w3.org/2000/svg" xmlns:xlink="http://www.w3.org/1999/xlink" width="150" zoomAndPan="magnify" viewBox="0 0 112.5 37.5" height="50" preserveAspectRatio="xMidYMid meet" version="1.0"><defs><clipPath id="6444c98494"><path d="M 43.902344 6.402344 L 69.808594 6.402344 L 69.808594 32.308594 L 43.902344 32.308594 Z M 43.902344 6.402344 " clip-rule="nonzero"/></clipPath></defs><g clip-path="url(#6444c98494)"><path fill="#f58723" d="M 54.398438 6.449219 C 48.578125 6.511719 43.90625 11.285156 43.972656 17.109375 C 44.035156 22.933594 48.808594 27.601562 54.632812 27.539062 C 56.78125 27.515625 58.875 26.832031 60.628906 25.585938 L 66.652344 31.609375 C 67.339844 32.289062 68.453125 32.28125 69.132812 31.589844 C 69.804688 30.90625 69.804688 29.808594 69.132812 29.125 L 63.109375 23.105469 C 66.484375 18.359375 65.375 11.773438 60.628906 8.398438 C 58.808594 7.105469 56.628906 6.425781 54.398438 6.449219 Z M 54.273438 8.273438 C 59.082031 8.140625 63.089844 11.929688 63.222656 16.738281 C 63.226562 16.824219 63.226562 16.90625 63.226562 16.992188 C 63.230469 21.804688 59.332031 25.703125 54.519531 25.707031 C 49.710938 25.710938 45.808594 21.8125 45.804688 17 C 45.804688 16.996094 45.804688 16.996094 45.804688 16.992188 C 45.800781 12.273438 49.554688 8.40625 54.273438 8.273438 Z M 54.273438 8.273438 " fill-opacity="1" fill-rule="nonzero"/></g><path fill="#f58723" d="M 52.164062 10.53125 C 52.640625 10.359375 53.167969 10.609375 53.335938 11.085938 C 53.507812 11.558594 53.265625 12.082031 52.792969 12.253906 C 50.800781 12.980469 49.472656 14.875 49.472656 16.992188 C 49.472656 17.5 49.0625 17.910156 48.558594 17.910156 C 48.050781 17.910156 47.640625 17.5 47.640625 16.992188 C 47.640625 14.101562 49.449219 11.519531 52.164062 10.53125 Z M 52.164062 10.53125 " fill-opacity="1" fill-rule="nonzero"/></svg>